<?xml version="1.0" standalone="no"?>
<!DOCTYPE svg PUBLIC "-//W3C//DTD SVG 20010904//EN"
 "http://www.w3.org/TR/2001/REC-SVG-20010904/DTD/svg10.dtd">
<svg version="1.0" xmlns="http://www.w3.org/2000/svg"
 width="160.000000pt" height="160.000000pt" viewBox="0 0 160.000000 160.000000"
 preserveAspectRatio="xMidYMid meet">
<metadata>
Created by potrace 1.11, written by Peter Selinger 2001-2013
</metadata>
<g transform="translate(0.000000,160.000000) scale(0.100000,-0.100000)"
fill="#000000" stroke="none">
<path d="M170 1558 c-40 -24 -63 -63 -66 -111 -3 -51 9 -81 42 -112 26 -24 26
-25 5 -25 -24 0 -40 -31 -36 -71 4 -37 -5 -47 -45 -51 l-35 -3 -3 -164 c-2
-108 1 -168 8 -175 6 -6 34 -12 63 -13 29 -1 54 -2 57 -2 8 -1 9 -91 2 -92 -4
-1 -30 -2 -57 -3 -28 -1 -56 -6 -63 -10 -13 -8 -18 -299 -6 -330 5 -12 21 -16
71 -16 55 0 64 -2 62 -17 -1 -10 -1 -95 0 -190 l1 -172 78 2 77 2 2 170 c0 94
2 178 2 188 1 16 29 17 475 17 l473 -1 1 -167 c0 -92 1 -176 1 -188 1 -20 6
-21 79 -21 l78 1 -1 170 c0 94 1 179 3 189 4 14 15 17 63 17 50 0 61 3 67 19
9 25 9 318 0 327 -4 3 -33 7 -65 8 l-58 1 -5 35 c-9 55 1 66 59 64 34 0 55 4
64 14 15 18 19 310 4 330 -5 6 -25 12 -43 12 -34 0 -34 0 -34 48 0 50 -12 72
-41 72 -12 0 -8 9 17 36 83 87 17 234 -106 234 -63 0 -124 -52 -136 -116 -8
-44 19 -120 49 -136 21 -12 21 -12 -8 -18 -28 -5 -30 -9 -31 -50 -1 -25 -2
-51 -3 -57 -1 -10 -94 -13 -431 -13 l-429 0 -3 57 c-3 51 -6 58 -27 63 -22 5
-23 6 -6 20 27 22 53 87 49 122 -12 101 -128 159 -214 106z m1106 -771 c1 -26
-1 -48 -5 -48 -3 -1 -216 -2 -473 -3 -306 -1 -468 2 -469 9 -4 39 -3 71 2 80
5 6 174 10 476 9 l468 0 1 -47z"/>
</g>
</svg>
